<svg id="nav_icon_1" xmlns="http://www.w3.org/2000/svg" viewBox="0 0 320 320"><defs><style>.cls-1{fill:#f5fff5;}</style></defs><title>controls_1</title><path class="cls-1" d="M160,0a40,40,0,1,0,40,40A40,40,0,0,0,160,0Zm0,52a12,12,0,1,1,12-12A12,12,0,0,1,160,52Z"/><path class="cls-1" d="M160,240a40,40,0,1,0,40,40A40,40,0,0,0,160,240Zm0,52a12,12,0,1,1,12-12A12,12,0,0,1,160,292Z"/><path class="cls-1" d="M280,120a40,40,0,1,0,40,40A40,40,0,0,0,280,120Zm0,52a12,12,0,1,1,12-12A12,12,0,0,1,280,172Z"/><path class="cls-1" d="M40,120a40,40,0,1,0,40,40A40,40,0,0,0,40,120Zm0,52a12,12,0,1,1,12-12A12,12,0,0,1,40,172Z"/></svg>