<svg id="nav_icon_2" xmlns="http://www.w3.org/2000/svg" viewBox="0 0 320 320"><defs><style>.cls-1{fill:#082225;}.cls-2{fill:#feecb9;}</style></defs><title>controls_2</title><rect class="cls-1" x="120" width="80" height="80" rx="10" ry="10"/><polygon class="cls-2" points="172 46 160 46 148 46 160 22 172 46"/><rect class="cls-1" x="120" y="240" width="80" height="80" rx="10" ry="10"/><polygon class="cls-2" points="172 274 160 274 148 274 160 298 172 274"/><rect class="cls-1" x="240" y="120" width="80" height="80" rx="10" ry="10" transform="translate(440 -120) rotate(90)"/><polygon class="cls-2" points="274 172 274 160 274 148 298 160 274 172"/><rect class="cls-1" y="120" width="80" height="80" rx="10" ry="10" transform="translate(200 120) rotate(90)"/><polygon class="cls-2" points="46 172 46 160 46 148 22 160 46 172"/></svg>