<svg id="nav_icon_2" xmlns="http://www.w3.org/2000/svg" viewBox="0 0 320 320"><defs><style>.cls-1{fill:#f5fff5;}</style></defs><title>controls_2</title><path class="cls-1" d="M190,0H130a10,10,0,0,0-10,10V70a10,10,0,0,0,10,10h60a10,10,0,0,0,10-10V10A10,10,0,0,0,190,0ZM160,46H148l12-24,12,24Z"/><path class="cls-1" d="M190,240H130a10,10,0,0,0-10,10v60a10,10,0,0,0,10,10h60a10,10,0,0,0,10-10V250A10,10,0,0,0,190,240Zm-30,58-12-24h24Z"/><path class="cls-1" d="M310,120H250a10,10,0,0,0-10,10v60a10,10,0,0,0,10,10h60a10,10,0,0,0,10-10V130A10,10,0,0,0,310,120Zm-36,52V148l24,12Z"/><path class="cls-1" d="M70,120H10A10,10,0,0,0,0,130v60a10,10,0,0,0,10,10H70a10,10,0,0,0,10-10V130A10,10,0,0,0,70,120ZM46,160v12L22,160l24-12Z"/></svg>