<svg id="nav_icon_0" xmlns="http://www.w3.org/2000/svg" viewBox="0 0 61.44 32.4"><defs><style>.cls-1{fill:#f5fff5;}</style></defs><title>controls_0</title><path class="cls-1" d="M133.75,172.69q-4-3.51-4.41-10-.06-.78-.06-2.7t.06-2.7a13.44,13.44,0,0,1,4.53-9.93q4.17-3.57,11.49-3.57t11.49,3.57a13.44,13.44,0,0,1,4.53,9.93q.12,1.56.12,2.7t-.12,2.7q-.36,6.48-4.41,10t-11.61,3.51Q137.8,176.2,133.75,172.69ZM149,167.11a8.39,8.39,0,0,0,1.38-4.71q.06-.6.06-2.4t-.06-2.4a8.44,8.44,0,0,0-1.38-4.68,5.07,5.07,0,0,0-7.32,0,8.44,8.44,0,0,0-1.38,4.68l-.06,2.4.06,2.4a8.39,8.39,0,0,0,1.38,4.71,5.14,5.14,0,0,0,7.32,0Z" transform="translate(-129.28 -143.8)"/><path class="cls-1" d="M167.65,175.15a1.44,1.44,0,0,1-.45-1.05V146a1.57,1.57,0,0,1,.42-1.11,1.41,1.41,0,0,1,1.08-.45H176a1.54,1.54,0,0,1,1.56,1.56v2.28a11.47,11.47,0,0,1,3.93-2.85,12.31,12.31,0,0,1,5-1h2.7a1.44,1.44,0,0,1,1.5,1.5v6.54a1.49,1.49,0,0,1-.42,1.05,1.41,1.41,0,0,1-1.08.45h-6.06a4.93,4.93,0,0,0-3.69,1.32,5.1,5.1,0,0,0-1.29,3.72V174.1a1.41,1.41,0,0,1-.45,1.08,1.57,1.57,0,0,1-1.11.42H168.7A1.44,1.44,0,0,1,167.65,175.15Z" transform="translate(-129.28 -143.8)"/></svg>