<svg id="HEAD" xmlns="http://www.w3.org/2000/svg" viewBox="0 0 220 210"><defs><style>.cls-1{fill:#f5fff5;}</style></defs><title>sadly_title_head</title><path class="cls-1" d="M0,160c0,27.61,114.77,50,170,50a50,50,0,0,0,0-100C114.77,110,0,132.39,0,160Zm135-20a15,15,0,1,1,15,15A15,15,0,0,1,135,140Zm-33,17h6v6h-6Zm-12,0h6v6H90Zm-12,0h6v6H78Zm-12,0h6v6H66Zm-12,0h6v6H54Zm-12,0h6v6H42Zm-12,0h6v6H30Zm-12,0h6v6H18ZM6,157h6v6H6Z" transform="translate(0 0)"/><circle class="cls-1" cx="150" cy="140" r="10"/><polygon class="cls-1" points="130.5 90 130.5 0 170.5 0 170.5 90 180 90 180 100 120 100 120 90 130.5 90"/></svg>