<svg id="Layer_1" data-name="Layer 1" xmlns="http://www.w3.org/2000/svg" viewBox="0 0 170 50"><defs><style>.cls-1{fill:#082225;}</style></defs><title>trees_far</title><polygon class="cls-1" points="170 40 160 40 150 40 160 0 170 40"/><rect class="cls-1" x="157.5" y="40" width="5" height="10"/><polygon class="cls-1" points="140 40 130 40 120 40 130 0 140 40"/><rect class="cls-1" x="127.5" y="40" width="5" height="10"/><polygon class="cls-1" points="110 40 100 40 90 40 100 0 110 40"/><rect class="cls-1" x="97.5" y="40" width="5" height="10"/><polygon class="cls-1" points="80 40 70 40 60 40 70 0 80 40"/><rect class="cls-1" x="67.5" y="40" width="5" height="10"/><polygon class="cls-1" points="50 40 40 40 30 40 40 0 50 40"/><rect class="cls-1" x="37.5" y="40" width="5" height="10"/><polygon class="cls-1" points="20 40 10 40 0 40 10 0 20 40"/><rect class="cls-1" x="7.5" y="40" width="5" height="10"/></svg>