<svg id="Layer_1" data-name="Layer 1" xmlns="http://www.w3.org/2000/svg" viewBox="0 0 341 360"><defs><style>.cls-1{fill:#ccc;opacity:0.8;}</style></defs><title>weather_rain</title><rect class="cls-1" y="10" width="1" height="30"/><rect class="cls-1" x="40" y="70" width="1" height="30"/><rect class="cls-1" x="10" y="180" width="1" height="30"/><rect class="cls-1" x="30" y="300" width="1" height="30"/><rect class="cls-1" x="110" y="230" width="1" height="30"/><rect class="cls-1" x="150" y="60" width="1" height="30"/><rect class="cls-1" x="200" y="150" width="1" height="30"/><rect class="cls-1" x="250" y="330" width="1" height="30"/><rect class="cls-1" x="310" y="240" width="1" height="30"/><rect class="cls-1" x="340" y="70" width="1" height="30"/><rect class="cls-1" x="240" y="70" width="1" height="20"/><rect class="cls-1" x="170" y="320" width="1" height="20"/><rect class="cls-1" x="110" y="130" width="1" height="20"/><rect class="cls-1" x="80" y="30" width="1" height="20"/><rect class="cls-1" x="80" y="340" width="1" height="20"/><rect class="cls-1" x="230" y="260" width="1" height="20"/><rect class="cls-1" x="290" width="1" height="20"/></svg>